<?xml version="1.0" encoding="utf-8"?>
<!-- Uploaded to: SVG Repo, www.svgrepo.com, Generator: SVG Repo Mixer Tools -->
<svg width="800px" height="800px" viewBox="-47.71 0 369.728 369.728" xmlns="http://www.w3.org/2000/svg"><defs><style>.a{fill:#ffffff;}.b{fill:#211715;}.c{fill:#7a7473;}.d{fill:#3d8dcc;}.e{fill:#85807f;}</style></defs><path class="a" d="M63.491,257.227c8.48-34.245,18.485-74.915,22.342-90.869a8.764,8.764,0,0,0,.25-1.84c.344.144.565.239.565.239l5.011.682,6.967,3.146a3.1,3.1,0,0,0,4.362-1.715,3.309,3.309,0,0,0-1.714-4.512l-9.091-3.892-5.01-.682-6.968-3.147a3.1,3.1,0,0,0-4.362,1.715,3.31,3.31,0,0,0,1.715,4.513l.965.413c-.14.56-.28,1.15-.43,1.78-7.41,30.53-29.96,121.92-36.62,148.19a31.739,31.739,0,0,1,25.6,27.95H207.234a32.841,32.841,0,0,1,2.764-10c-16.2,0-76.6,0-132.025.01-5.033-7.757-17.9-26.546-23.24-34.571,0,0-.14-.212-.4-.586C56.774,284.3,60,271.308,63.491,257.227Z"/><path class="b" d="M90.649,167.166l4.594,2.074c2.021.913,4.267,2.283,6.533,1.4a5.676,5.676,0,0,0,3.522-5.043,5.2,5.2,0,0,0-2.941-4.931c-1.375-.612-2.768-1.185-4.152-1.777l-5.013-2.146a2.056,2.056,0,0,0-2.736.718,2.022,2.022,0,0,0,.717,2.736l8.695,3.722.386.166c.222.1.42.22.632.332.19.1-.084-.064-.1-.086.061.066.145.142.215.2.03.027.22.209.033.02s.056.09.094.154.062.136.1.191c.152.2-.069-.328-.034-.078a2.125,2.125,0,0,0,.115.422c.1.242.015-.357-.013-.095a2.091,2.091,0,0,0,.01.223,1.2,1.2,0,0,1-.011.3c.048-.053.084-.377.006-.079-.046.178-.1.351-.151.527-.062.207.023-.069.038-.094-.058.1-.1.205-.161.3-.041.07-.095.137-.132.208-.125.24.228-.192.025-.032-.055.044-.1.115-.154.165s-.377.246-.13.124c.3-.146-.28.132-.274.134-.048-.021.4-.077.16-.075a.832.832,0,0,0-.2.059c-.392.143.149-.044.129,0a.958.958,0,0,1-.206.014,1.721,1.721,0,0,0-.278,0c-.222.038.332.087.11.023-.16-.046-.334-.086-.5-.124-.137-.031-.272-.1.048.035-.05-.021-.1-.044-.148-.067-.66-.3-1.32-.6-1.98-.894l-4.835-2.183a2.049,2.049,0,0,0-2.736.717,2.023,2.023,0,0,0,.717,2.737Z"/><path class="b" d="M88.182,156.057l-4.593-2.074c-2.021-.913-4.268-2.283-6.534-1.4a5.675,5.675,0,0,0-3.522,5.043,5.2,5.2,0,0,0,2.941,4.93c1.375.612,2.769,1.185,4.152,1.777l5.013,2.147a2.056,2.056,0,0,0,2.736-.718,2.021,2.021,0,0,0-.717-2.736l-8.694-3.722-.387-.166c-.221-.1-.42-.22-.632-.332-.189-.1.084.063.105.085-.062-.066-.146-.142-.215-.2-.031-.027-.22-.209-.034-.02s-.056-.09-.093-.154a2.052,2.052,0,0,0-.1-.191c-.153-.2.068.327.033.077a2.2,2.2,0,0,0-.114-.421c-.1-.242-.016.356.012.095.007-.07-.009-.152-.009-.223a1.112,1.112,0,0,1,.011-.3c-.049.053-.084.376-.007.079.046-.178.1-.351.152-.527.061-.207-.024.068-.039.093.059-.1.1-.2.162-.3.041-.07.094-.137.131-.208.126-.24-.228.192-.025.031a2.218,2.218,0,0,0,.155-.165c.062-.061.376-.245.129-.124-.3.147.28-.131.275-.134.048.021-.4.077-.161.075a.772.772,0,0,0,.2-.058c.393-.143-.148.044-.129,0a.963.963,0,0,1,.206-.014,1.721,1.721,0,0,0,.278,0c.222-.039-.332-.088-.109-.023.159.046.333.086.5.123.138.032.273.1-.047-.034.049.021.1.044.148.067q.988.448,1.98.894l4.834,2.183a2.051,2.051,0,0,0,2.737-.718,2.024,2.024,0,0,0-.718-2.736Z"/><path class="c" d="M34.643,319.005a23.788,23.788,0,0,0-24.259,24.11c0,14.546,10.128,24.562,24.26,24.562,14.676,0,24.26-10.11,24.26-24.562A23.767,23.767,0,0,0,34.643,319.005Z"/><path class="a" d="M34.643,332.15a10.939,10.939,0,0,0-11.156,11.087c0,6.689,4.658,11.3,11.157,11.3,6.749,0,11.156-4.65,11.156-11.3A10.929,10.929,0,0,0,34.643,332.15Z"/><path class="b" d="M34.643,317.005a26.1,26.1,0,0,0-25.08,18.2c-3.159,10.2-.052,22.389,8.49,29.035,8.475,6.594,21.314,7.264,30.586,1.908,9.428-5.446,13.469-16.727,11.934-27.195a25.76,25.76,0,0,0-8.279-15.411,26.722,26.722,0,0,0-17.651-6.538c-2.574-.017-2.577,3.983,0,4,9.623.063,18.324,5.9,21.22,15.23,2.657,8.568.372,18.974-6.728,24.752-6.99,5.69-18.081,6.222-25.875,1.926-8.16-4.5-12.016-14.153-10.641-23.2a21.731,21.731,0,0,1,22.024-18.711C37.216,320.988,37.222,316.988,34.643,317.005Z"/><path class="b" d="M34.643,330.15a13.131,13.131,0,0,0-12.557,9.107,13.6,13.6,0,0,0,4.227,14.507,14.14,14.14,0,0,0,15.271,1.021c4.773-2.729,6.836-8.426,6.03-13.707A13.069,13.069,0,0,0,34.643,330.15c-2.574-.033-2.576,3.967,0,4a9.03,9.03,0,0,1,8.783,6.43c1.007,3.5.074,7.774-2.856,10.091a10.1,10.1,0,0,1-10.578.758,9.275,9.275,0,0,1-4.442-9.423,9.076,9.076,0,0,1,9.093-7.856C37.215,334.116,37.223,330.116,34.643,330.15Z"/><path class="c" d="M239.656,319.005a23.788,23.788,0,0,0-24.259,24.11c0,14.546,10.128,24.562,24.26,24.562,14.676,0,24.26-10.11,24.26-24.562A23.767,23.767,0,0,0,239.656,319.005Z"/><path class="a" d="M239.656,332.15A10.939,10.939,0,0,0,228.5,343.237c0,6.689,4.658,11.3,11.157,11.3,6.749,0,11.156-4.65,11.156-11.3A10.929,10.929,0,0,0,239.656,332.15Z"/><path class="b" d="M239.656,317.005a26.1,26.1,0,0,0-25.08,18.2c-3.159,10.2-.052,22.389,8.49,29.035,8.475,6.594,21.314,7.264,30.586,1.908,9.427-5.446,13.468-16.727,11.934-27.195a25.76,25.76,0,0,0-8.279-15.411,26.722,26.722,0,0,0-17.651-6.538c-2.575-.017-2.577,3.983,0,4,9.623.063,18.324,5.9,21.219,15.23,2.658,8.568.373,18.974-6.727,24.752-6.99,5.69-18.082,6.222-25.875,1.926-8.16-4.5-12.016-14.153-10.641-23.2a21.731,21.731,0,0,1,22.024-18.711C242.229,320.988,242.235,316.988,239.656,317.005Z"/><path class="b" d="M274.3,343.037a34.4,34.4,0,0,0-22.2-32.293c-13.738-5.081-30.289-1.094-39.493,10.465a35.236,35.236,0,0,0-7.592,21.828c-.013,2.574,3.987,2.577,4,0,.061-12.513,7.613-24.241,19.548-28.536,12.335-4.44,26.761-1.037,35.1,9.242a30.924,30.924,0,0,1,6.641,19.294c.012,2.573,4.012,2.578,4,0Z"/><path class="b" d="M69.288,343.037a34.4,34.4,0,0,0-22.2-32.293C33.348,305.663,16.8,309.65,7.592,321.209A35.242,35.242,0,0,0,0,343.037c-.012,2.574,3.988,2.577,4,0,.061-12.513,7.613-24.241,19.548-28.536,12.335-4.44,26.761-1.037,35.1,9.242a30.924,30.924,0,0,1,6.641,19.294c.012,2.573,4.012,2.578,4,0Z"/><path class="b" d="M239.656,330.15a13.131,13.131,0,0,0-12.557,9.107,13.6,13.6,0,0,0,4.227,14.507,14.138,14.138,0,0,0,15.27,1.021c4.774-2.729,6.837-8.426,6.031-13.707a13.069,13.069,0,0,0-12.971-10.928c-2.574-.033-2.576,3.967,0,4a9.028,9.028,0,0,1,8.782,6.43c1.008,3.5.075,7.774-2.855,10.091a10.1,10.1,0,0,1-10.578.758,9.273,9.273,0,0,1-4.442-9.423,9.076,9.076,0,0,1,9.093-7.856C242.228,334.116,242.235,330.116,239.656,330.15Z"/><path class="b" d="M67.288,341.2H206.936c2.574,0,2.578-4,0-4H67.288c-2.574,0-2.578,4,0,4Z"/><path class="b" d="M77.9,331.2H209.733c2.574,0,2.579-4,0-4H77.9c-2.574,0-2.578,4,0,4Z"/><path class="b" d="M43.4,311.779q2.874-11.338,5.686-22.694,4.024-16.164,8.024-32.334,4.455-18,8.891-36,4.092-16.6,8.166-33.206,1.673-6.82,3.34-13.642.711-2.909,1.42-5.818c.434-1.78.825-3.853,1.312-5.411.556-1.781.885-3.667,1.321-5.483.6-2.5-3.256-3.569-3.857-1.063q-.658,2.742-1.321,5.482c-.072.3-.165.606-.219.908-.008.042-.2.863-.056.352.121-.429-.078.209-.1.315q-.156.642-.311,1.282-.659,2.708-1.32,5.416-1.584,6.494-3.176,12.987-3.978,16.23-7.977,32.454-4.436,18.007-8.889,36.01-4.093,16.551-8.207,33.1-3.014,12.111-6.056,24.215-.263,1.035-.524,2.071c-.633,2.5,3.224,3.561,3.857,1.063Z"/><path class="b" d="M53.5,305.6q2.827-11.147,5.589-22.31,3.954-15.881,7.879-31.766,4.311-17.424,8.6-34.853,3.819-15.512,7.621-31.025,1.484-6.061,2.961-12.123c1.08-4.435,2.926-9.263,1.141-13.731a31.508,31.508,0,0,0-1.417-2.881c-1.195-2.281-4.649-.261-3.454,2.019a17.152,17.152,0,0,1,1.313,2.754,8.534,8.534,0,0,1,.033,4.711q-.546,2.259-1.1,4.516-1.391,5.716-2.789,11.429-3.686,15.06-7.394,30.114-4.243,17.244-8.506,34.483-3.971,16.058-7.96,32.109-2.919,11.742-5.87,23.475l-.51,2.016c-.633,2.5,3.223,3.561,3.857,1.063Z"/><path class="b" d="M53.007,295.642c6.122,9.2,12.388,18.3,18.541,27.48,1.474,2.2,2.944,4.4,4.391,6.619,1.4,2.147,4.866.145,3.454-2.019-6.051-9.272-12.343-18.387-18.54-27.562q-2.2-3.262-4.393-6.537c-1.419-2.133-4.885-.132-3.453,2.019Z"/><path class="b" d="M249.086,293.527C254.4,300.765,259.838,307.9,265.2,315.1a2.061,2.061,0,0,0,2.736.718,2.014,2.014,0,0,0,.717-2.736c-5.36-7.2-10.8-14.339-16.112-21.577a2.06,2.06,0,0,0-2.736-.718,2.016,2.016,0,0,0-.718,2.737Z"/><path class="b" d="M246.066,311.18l7.945-6.952a2.012,2.012,0,0,0,0-2.829,2.049,2.049,0,0,0-2.828,0l-7.945,6.952a2.012,2.012,0,0,0,0,2.829,2.049,2.049,0,0,0,2.828,0Z"/><path class="a" d="M124.9,307.407a4.689,4.689,0,0,0-3.974-.827,35.194,35.194,0,0,1-8.128.718,4.831,4.831,0,0,1-4.553-3.9,1.481,1.481,0,0,0-.657-.871,21.674,21.674,0,0,0,2.165-5.38l.025-.128c4.268.844,10.9,1.9,16.347,2.679a20.329,20.329,0,0,0-1.129,7.786Z"/><path class="a" d="M202.165,294.209c-.094-.034-.186-.069-.276-.106a1.534,1.534,0,0,0-1.606.26,17.039,17.039,0,0,0-2.1-5.791l-.155-.286c4.927-3.456,9.907-7.168,13.764-10.325.194,1.021.365,1.912.365,1.912a9.064,9.064,0,0,0,2.017,3.843,6.515,6.515,0,0,0-1.535,2,36.746,36.746,0,0,1-4.627,7.144A4.962,4.962,0,0,1,202.165,294.209Z"/><path class="a" d="M176.061,175a2.776,2.776,0,0,0,2.433-2.778c-.095-8.949-5.811-57.331-6.643-63.8-1.251-9.734-2.09-15.372-5.275-23.919-.366-.983-1.237-3.143-1.648-4.115-.514-1.213-2.9-7.086-3.047-7.485a3.842,3.842,0,0,0-3-2.716,6.7,6.7,0,0,0-3.532.482c-6.72,3.245-14.3,6.122-21.337,9.042a5.22,5.22,0,0,0-1.277,1.936c-.893,2.673-3.8,10.686-4.628,15.092a211.76,211.76,0,0,0-3.371,24.936c-1.1,15.79-1.2,32.577-1.015,52.87a5.818,5.818,0,0,0,4.96,5.209C141.187,180.493,161.732,177.985,176.061,175Z"/><path class="d" d="M146.527,179.269a130.881,130.881,0,0,1-17.848.486,4.7,4.7,0,0,1-2.2-.776c-.049.282-.075.435-.075.435-4.035,23.544-7.552,41.388-11.2,62.39-2.336,13.438-7.74,39.573-9.744,53.289a.985.985,0,0,0,.689,1.089c3.192.994,15.975,3.006,23.539,4.014a1,1,0,0,0,1.1-.764c5.109-20.985,8.284-32.406,13.261-51.175,1.6-6.026,3.924-12.952,6.514-19.985a39.276,39.276,0,0,0,3.24,7.245c10.961,17.983,27.709,42.444,38.322,55.718a.994.994,0,0,0,1.336.2c6.642-4.472,14.1-9.928,19.211-14.191a.988.988,0,0,0,.2-1.285c-9.109-14.678-18.944-29.746-28.023-44.4a37.453,37.453,0,0,1-3.94-8.6c-1.82-6.16-2.38-10.92-2.99-17.84-.9-10.11-1.45-15.82-2.12-22.26l-.8-7.637A261.7,261.7,0,0,1,146.527,179.269Z"/><path class="b" d="M124.472,178.883c-3.423,19.955-7.249,39.838-10.748,59.78-2.779,15.838-6.071,31.581-8.824,47.424q-.452,2.6-.873,5.211c-.253,1.573-1.03,3.894-.225,5.356.767,1.391,2.386,1.646,3.8,1.957,1.535.337,3.081.622,4.628.9,4.015.717,8.047,1.347,12.083,1.937a31.762,31.762,0,0,0,5.666.744c2.982-.131,3.17-4.044,3.707-6.224q3.3-13.4,6.841-26.739c2.268-8.567,4.363-17.214,6.944-25.692,4.942-16.227,11.617-31.912,18.2-47.526q.888-2.106,1.773-4.214a2.012,2.012,0,0,0-1.4-2.46,2.051,2.051,0,0,0-2.46,1.4c-5.353,12.775-10.786,25.521-15.519,38.543-5.11,14.059-8.69,28.573-12.486,43.026q-1.626,6.189-3.2,12.39-.87,3.431-1.722,6.864-.444,1.788-.884,3.576a29.762,29.762,0,0,1-1.034,4.046l.515-.883c.437-.547.567.094.217-.127a2.584,2.584,0,0,0-.771-.106q-.645-.088-1.289-.18-1.721-.243-3.439-.5-3.324-.5-6.64-1.039c-2-.329-4-.671-6-1.05-1.385-.262-2.85-.786-4.247-.919-.067-.006-.23-.1-.283-.08l.618,1.075.039-.26a9.212,9.212,0,0,0,.2-1.341q.2-1.288.411-2.575.5-3.01,1.031-6.015c.778-4.392,1.6-8.777,2.427-13.159,3.467-18.3,6.775-36.615,10.136-54.931,2.27-12.372,4.535-24.744,6.662-37.141a2.059,2.059,0,0,0-1.4-2.46,2.015,2.015,0,0,0-2.46,1.4Z"/><path class="b" d="M173.793,182.857q.807,7.758,1.513,15.524c.6,6.608.968,13.3,2.327,19.806a47.651,47.651,0,0,0,2.962,9.589,75.039,75.039,0,0,0,5.318,9.281c3.877,6.2,7.8,12.362,11.729,18.528q3.413,5.359,6.813,10.726,1.688,2.667,3.366,5.341.77,1.228,1.538,2.458l.765,1.226c.114.184.747,1.368.839,1.1l.515-.882a26.315,26.315,0,0,1-4.13,3.41c-1.616,1.259-3.256,2.488-4.906,3.7q-2.531,1.86-5.1,3.667-1.276.9-2.561,1.782c-.649.446-1.683,1.456-2.426,1.564h1.063c.258.039.029.04-.16-.2l-.455-.574q-.42-.531-.836-1.065-.969-1.239-1.919-2.492-2-2.62-3.941-5.277-4.458-6.069-8.749-12.258-8.936-12.84-17.326-26.052c-2.835-4.478-5.942-8.92-7.551-14.019-.772-2.447-4.635-1.4-3.857,1.063,1.871,5.93,5.478,11.09,8.787,16.286q5.456,8.569,11.162,16.976c6.889,10.171,13.951,20.267,21.585,29.9,1.007,1.27,2.394,2.113,4.028,1.323a35.81,35.81,0,0,0,4.624-3.119q4.547-3.183,8.971-6.536,1.843-1.4,3.661-2.84c1.207-.958,3.115-2.026,3.491-3.625.433-1.844-1.213-3.627-2.121-5.081q-1.666-2.67-3.346-5.331c-4.343-6.889-8.732-13.749-13.1-20.624q-3.258-5.131-6.491-10.279a85.136,85.136,0,0,1-5.641-9.68c-3.32-7.281-3.834-15.607-4.539-23.46-.595-6.624-1.218-13.245-1.906-19.86a2.057,2.057,0,0,0-2-2,2.014,2.014,0,0,0-2,2Z"/><path class="b" d="M123.867,300.153a23.02,23.02,0,0,0-.9,6.459,2,2,0,0,0,4,0,21.542,21.542,0,0,1,.177-2.826l-.072.532a21.6,21.6,0,0,1,.654-3.1,2,2,0,0,0-3.857-1.063Z"/><path class="b" d="M108.88,304.267a23.783,23.783,0,0,0,2.8-6.584,2,2,0,0,0-3.857-1.064,22.319,22.319,0,0,1-1.042,3.1l.2-.478a22.285,22.285,0,0,1-1.555,3,2.02,2.02,0,0,0,.717,2.736,2.04,2.04,0,0,0,2.737-.717Z"/><path class="b" d="M196.458,289.582c.22.4.432.813.632,1.228.1.218.206.437.3.658.033.074.066.149.1.224l-.106-.252a2.735,2.735,0,0,0,.16.4,13.091,13.091,0,0,1,.785,2.866l-.071-.532a7.668,7.668,0,0,1,.053,1.588,2.01,2.01,0,0,0,2,2,2.05,2.05,0,0,0,2-2c.222-2.856-1.07-5.749-2.4-8.2a2.018,2.018,0,0,0-2.736-.718,2.044,2.044,0,0,0-.718,2.737Z"/><path class="b" d="M210.23,280.4a7.945,7.945,0,0,0,.876,2.346,11.848,11.848,0,0,0,1.043,1.592,2.238,2.238,0,0,0,1.195.919,2.043,2.043,0,0,0,1.541-.2,2.017,2.017,0,0,0,.919-1.195,1.934,1.934,0,0,0-.2-1.541,10.608,10.608,0,0,1-1.341-2.21l.2.478a5.748,5.748,0,0,1-.377-1.251,2.006,2.006,0,0,0-.919-1.195,2.039,2.039,0,0,0-1.541-.2,2.017,2.017,0,0,0-1.2.919l-.2.477a2.022,2.022,0,0,0,0,1.064Z"/><path class="a" d="M118.274,14.476a19.911,19.911,0,0,0-3.3,4.886,21.652,21.652,0,0,0-1.991,9.682,30.943,30.943,0,0,0,.164,5.311c.148,4.018.369,9.591-3.166,11.822A3.753,3.753,0,0,0,108.388,48c-.745,2.055,1.035,2.836,2.177,3.914a6.149,6.149,0,0,1,1.568,2.509,38.222,38.222,0,0,0,1.2,5.723,16.138,16.138,0,0,0,1.565,3.787,7.67,7.67,0,0,0,4.474,3.607,18.492,18.492,0,0,0,9.932.119,1.336,1.336,0,0,1,1.627.681,40.54,40.54,0,0,0,1.871,4.7,29.232,29.232,0,0,0,1.65,6.62c6.909-2.9,14.314-5.764,20.894-8.986a6.179,6.179,0,0,1,2.391-.541c-.084-.261-.134-.421-.134-.421l-.278-.879a21.225,21.225,0,0,1-.888-4.43c.1-3.489,4.123-7.2,6.276-9.883a31.578,31.578,0,0,0,7.018-22.665A31.14,31.14,0,0,0,163.5,16.338C155.61,6.25,147.385,4.97,142.349,4.682a31.4,31.4,0,0,0-14.077,2.654,27.867,27.867,0,0,0-9.788,6.9Z"/><path class="e" d="M127.914,7.491c-8.663,3.82-12.332,10.405-12.944,11.871a21.5,21.5,0,0,0-1.985,8.778,11.411,11.411,0,0,1,7.394-1.685c6.231.71,11.716,4.316,15.342,7.589,2.03,1.984,2.576,3.457,4.543,6.514a5.44,5.44,0,0,1,2.832-2.381,3.83,3.83,0,0,1,3.266.286,5.608,5.608,0,0,1,2.146,4.5,9.748,9.748,0,0,1-2.164,6.611c.089.214.141.337.141.337,1.514,3.567,6.867,9.035,11.1,11.056,1.375-2.36,3.677-4.635,5.128-6.446a31.578,31.578,0,0,0,7.018-22.665A31.14,31.14,0,0,0,163.5,16.338C155.61,6.25,147.385,4.97,142.349,4.682a31.4,31.4,0,0,0-14.077,2.654C128.152,7.387,128.032,7.438,127.914,7.491Z"/><path class="b" d="M120.379,28.455A24.824,24.824,0,0,1,131.6,33.26a19.318,19.318,0,0,1,3.84,3.428,48.1,48.1,0,0,1,2.912,4.588c1.37,2.171,4.832.166,3.453-2.019a53.248,53.248,0,0,0-3.456-5.3,23.874,23.874,0,0,0-4.73-4.153,28.685,28.685,0,0,0-13.239-5.351,2.01,2.01,0,0,0-2,2,2.049,2.049,0,0,0,2,2Z"/><path class="b" d="M142.152,41.331c.155-.191.312-.378.484-.554.053-.055.514-.453.3-.294a2.237,2.237,0,0,1,.945-.451,1.948,1.948,0,0,1,1.1-.02.974.974,0,0,1,.371.178c.339.205-.044-.13.209.185.015.02.369.478.2.227a5.2,5.2,0,0,1,.364.636c.058.124.062.127.011.009.052.133.1.268.141.4.063.2.105.412.161.618.114.424.025-.1.05.294.015.241.023.481.021.723a11.424,11.424,0,0,1-.082,1.333c.05-.388-.046.225-.05.245q-.054.283-.126.562a8.644,8.644,0,0,1-.408,1.243c.16-.377-.089.162-.1.189-.082.163-.17.324-.262.481-.107.184-.228.359-.342.539-.051.076-.1.151-.157.225l-.025.031c-.241.285-.49.562-.757.823q-.206.2-.42.388c-.052.045-.617.491-.355.3a15.312,15.312,0,0,1-2.319,1.388,2,2,0,0,0,2.019,3.454,12.734,12.734,0,0,0,6.912-7.721c1.068-3.736.451-9.069-3.768-10.537a6.483,6.483,0,0,0-6.942,2.276,2.058,2.058,0,0,0,0,2.828,2.013,2.013,0,0,0,2.828,0Z"/><path class="b" d="M117.615,39.743c-.393,1.232-.227,4.09,2,4.38,2.948.045,3.19-3.4,2.238-5.044C121.07,37.734,118.7,37.131,117.615,39.743Z"/><path class="b" d="M134.53,72.036a32.233,32.233,0,0,1-1.246-3,8.785,8.785,0,0,0-.8-1.976c-1.535-2.29-3.834-1.046-5.974-.844a17.433,17.433,0,0,1-6.6-.6,6.576,6.576,0,0,1-3.936-3.946,28.459,28.459,0,0,1-1.783-6.885,7.924,7.924,0,0,0-3.078-5.012c-.244-.2-.863-.571-.9-.886-.074-.69,1.4-1.4,1.8-1.749a9.191,9.191,0,0,0,2.7-4.863c1.119-4.773-.1-9.625.371-14.437a2.014,2.014,0,0,0-2-2,2.044,2.044,0,0,0-2,2c-.421,4.277.7,8.652-.125,12.9a5.714,5.714,0,0,1-2.281,3.921c-1.835,1.335-3.1,3.648-2.1,5.89.787,1.759,2.851,2.416,3.552,4.2a19.866,19.866,0,0,1,.458,2.555,35.215,35.215,0,0,0,.948,3.8A13.743,13.743,0,0,0,115.2,67.43a11.23,11.23,0,0,0,5.933,2.539,20.432,20.432,0,0,0,7.731-.107,2.722,2.722,0,0,0,.66-.173q.69-.078-.1-.436-.531-.618-.376-.243c-.068.173.308.9.375,1.086q.725,2.019,1.649,3.959c1.108,2.322,4.558.295,3.454-2.019Z"/><path class="b" d="M114.982,29.23A19.738,19.738,0,0,1,122.327,13.3a29.367,29.367,0,0,1,23.149-6.284c7.865,1.356,14.534,6.764,18.485,13.594a28.283,28.283,0,0,1,1.077,26.483c-1.8,3.727-4.212,6.465-6.8,9.6-1.5,1.82-3.1,3.872-3.61,6.235-.457,2.128.148,4.41.769,6.45.746,2.456,4.609,1.409,3.857-1.063-.5-1.642-1.148-3.464-.537-5.124.759-2.06,2.424-3.786,3.843-5.408a38.5,38.5,0,0,0,6.143-9.116,32.424,32.424,0,0,0-.885-29.352c-4.18-7.675-11.641-14.137-20.312-15.967a33.19,33.19,0,0,0-25.855,5.435,27.778,27.778,0,0,0-7.735,8.275,23.835,23.835,0,0,0-2.935,12.18c.018,2.573,4.018,2.578,4,0Z"/><path class="b" d="M144.759,50.924a22,22,0,0,0,4.689,6.358,27.6,27.6,0,0,0,6.81,5.258,2,2,0,0,0,2.019-3.454,18.2,18.2,0,0,1-1.635-.959q-.39-.256-.77-.53c-.129-.092-.258-.187-.386-.282-.049-.036-.474-.373-.109-.08a35.225,35.225,0,0,1-3.1-2.781q-.691-.7-1.34-1.448-.339-.39-.663-.79c-.036-.045-.355-.446-.179-.222s-.176-.235-.207-.278a14.553,14.553,0,0,1-1.676-2.811,2.005,2.005,0,0,0-2.736-.717,2.062,2.062,0,0,0-.717,2.736Z"/><path class="b" d="M112.649,58.877a11.531,11.531,0,0,0,5.579-1.5,2.091,2.091,0,0,0,.919-1.2,2.043,2.043,0,0,0-.2-1.541,2.022,2.022,0,0,0-1.195-.919,2.049,2.049,0,0,0-1.542.2,6.832,6.832,0,0,1-.937.489l.478-.2a9.525,9.525,0,0,1-2.418.626l.532-.071c-.4.052-.809.086-1.215.107a2.107,2.107,0,0,0-1.414.586,2,2,0,0,0,0,2.828,2,2,0,0,0,1.414.586Z"/><path class="b" d="M114.47,29.5a8.627,8.627,0,0,1,1.461-1.454l-.405.313a8.5,8.5,0,0,1,1.869-1.1,2.245,2.245,0,0,0,.919-1.2,2.043,2.043,0,0,0-.2-1.541,2.021,2.021,0,0,0-1.2-.919l-.531-.071a1.991,1.991,0,0,0-1.01.273,8.527,8.527,0,0,0-1.847,1.081,10.36,10.36,0,0,0-1.887,1.784,2.216,2.216,0,0,0-.586,1.414,2.036,2.036,0,0,0,.586,1.414,2.01,2.01,0,0,0,1.414.586,1.936,1.936,0,0,0,1.414-.586Z"/><path class="b" d="M176.593,176.931a4.932,4.932,0,0,0,3.894-5.1c-.014-.956-.081-1.914-.144-2.868-.193-2.937-.46-5.87-.736-8.8-.757-8.03-1.629-16.049-2.523-24.065q-1.208-10.837-2.5-21.666c-.885-7.409-1.616-14.908-3.453-22.151a101.1,101.1,0,0,0-4.751-13.574q-1.073-2.6-2.125-5.217c-.736-1.828-1.422-3.624-3.242-4.662-2.894-1.649-6.029-.168-8.717,1.074-3.076,1.42-6.2,2.731-9.335,4.013-3.16,1.292-6.335,2.547-9.484,3.864-1.958.819-2.579,3.073-3.213,4.914a102.147,102.147,0,0,0-4.088,13.511c-1.365,6.982-2.415,14.048-3.086,21.13-1.161,12.263-1.361,24.638-1.432,36.947q-.029,5.04-.008,10.081c.012,3.47-.229,7.069.087,10.524a7.934,7.934,0,0,0,5.126,6.494c2.169.816,5.041.514,7.328.5a214.157,214.157,0,0,0,34.335-3.437q4.046-.687,8.066-1.515c2.519-.522,1.453-4.379-1.064-3.857a239.026,239.026,0,0,1-32.646,4.47c-2.544.169-5.092.287-7.642.327a33.4,33.4,0,0,1-6.672-.14,3.907,3.907,0,0,1-2.409-1.857c-.747-1.236-.456-2.912-.467-4.3q-.037-4.892-.048-9.784c-.018-11.812.121-23.631.793-35.426.352-6.193.9-12.363,1.8-18.5A110.138,110.138,0,0,1,131.681,91.1c.687-2.209,1.43-4.4,2.183-6.588.239-.693.463-1.394.715-2.082.034-.093.18-.449.018-.09.092-.2.233-.388.318-.591a2.512,2.512,0,0,1,.232-.387c-.352.4.459-.157.666-.243,6.045-2.484,12.146-4.843,18.089-7.565,1.8-.822,4.853-2.7,6.05-.114.555,1.2.992,2.471,1.491,3.695,1.546,3.8,3.178,7.561,4.451,11.464,2.455,7.523,3.425,15.368,4.373,23.193q1.116,9.21,2.155,18.43c.889,7.831,1.755,15.664,2.551,23.5.58,5.7,1.22,11.421,1.479,17.147.046,1.033.3,1.9-.923,2.205C173.034,173.7,174.091,177.559,176.593,176.931Z"/><path class="a" d="M134.667,123.5c.721-2.405,1.241-4.668,1.683-6.921.832-4.245,1.345-8.463,2.128-13.6a25.884,25.884,0,0,1,2.664-9.039c2.187-4.129,5.85-7,10.951-6.774a11.854,11.854,0,0,1,9.543,5.932c1.689,4.119,1.584,8.6,1.391,13.063-1.154,11.588-2.186,15.922-5.915,27.074a33.5,33.5,0,0,1-4.307,7.484c-2.165,2.971-4.9,4.819-9.452,7.075-13.583,6.138-17.672,7.826-32.571,10.994a1,1,0,0,1-1.156-.634c-1.943-5.487-3.884-14.429-5.078-19.188a1.03,1.03,0,0,1,.711-1.215c11-3.372,18.336-5.227,25.787-9.149A8.163,8.163,0,0,0,134.667,123.5Z"/><path class="a" d="M78.079,154.943c-.262,2.122-.167,4.042-.247,6.4a4.079,4.079,0,0,0,1.058,3.008,2.345,2.345,0,0,0,2.765-.081l1.239-1.118.027.461c.115,1.967.827,3.767,2.163,3.9a3.355,3.355,0,0,0,2.79-1.884s.157-.406.411-1.067a8.538,8.538,0,0,0,.643,2.042A2.323,2.323,0,0,0,91.3,168c1.383-.223,1.972-.831,2.129-1.833.268-1.707-.036-2.471.5-3.866.86-2.248,2.914-2.327,5.043-2.436,4.77-.244,5.565-.639,9.624-4.937-1.343-4.535-2.619-10.1-3.572-14.061a47.029,47.029,0,0,1-7.607,2.155c-2.745.255-6.439.6-8.457.779a11.819,11.819,0,0,0-5.731,2.078,11.379,11.379,0,0,0-4.8,7.073A19.936,19.936,0,0,0,78.079,154.943Z"/><path class="b" d="M104.787,138.838c-2.555.85-5.379,2-7.925,2.235q-2.652.247-5.3.494a33.993,33.993,0,0,0-4.915.588,13.923,13.923,0,0,0-8.526,6.256c-2,3.375-2.2,7.258-2.247,11.081-.024,1.978-.149,3.977,1.08,5.663a4.19,4.19,0,0,0,5.715.845,2.061,2.061,0,0,0,.718-2.737,2.015,2.015,0,0,0-2.737-.717.683.683,0,0,1-.643.186q.408.364.046-.126a2.171,2.171,0,0,1-.1-.321,8.339,8.339,0,0,1-.081-2.569,28.6,28.6,0,0,1,.491-6.232,9.88,9.88,0,0,1,6.475-7.218,19.525,19.525,0,0,1,4.725-.7c1.831-.169,3.661-.335,5.491-.512a40.534,40.534,0,0,0,8.8-2.36c2.43-.808,1.389-4.673-1.064-3.857Z"/><path class="b" d="M81.509,154.1a40.634,40.634,0,0,0-.663,6.537c-.027,2.2-.039,4.534.934,6.552a4.156,4.156,0,0,0,1.887,1.961,3.948,3.948,0,0,0,3.509-.138,5.519,5.519,0,0,0,2.294-2.1c.584-1.015.4-2.3.446-3.431a26.481,26.481,0,0,1,.993-6.9,2,2,0,0,0-3.857-1.063,36.615,36.615,0,0,0-1.178,10.115l.273-1.009c-.051.116-.112.224-.174.336-.12.216.3-.286-.051.058-.086.083-.172.167-.26.248.247-.228-.037.024-.11.069a3.165,3.165,0,0,1-.4.218c.3-.133.027.035-.079-.006q-.175.038.036,0a.524.524,0,0,1,.361.024c-.256-.054-.013-.007.084.067-.367-.282.223.2,0,.029-.172-.133-.18-.207-.035,0-.078-.114-.144-.232-.213-.351-.046-.08-.165-.428-.048-.085a7.627,7.627,0,0,1-.236-.826c-.036-.164-.069-.329-.091-.5.038.283,0-.086-.007-.191a35.947,35.947,0,0,1-.041-4.44q.054-1.062.175-2.119c.063-.55.173-1.262.3-2a2.047,2.047,0,0,0-1.4-2.46,2.025,2.025,0,0,0-2.461,1.4Z"/><path class="b" d="M86.028,162.521a13.014,13.014,0,0,0,1.292,5.323,4.35,4.35,0,0,0,4.792,2.031,4.131,4.131,0,0,0,3.147-2.771,9.774,9.774,0,0,0,.3-2.388,4.23,4.23,0,0,1,.2-1.613c.351-.949,1.013-1.064,1.951-1.158,1.4-.141,2.8-.145,4.188-.34a11.286,11.286,0,0,0,6.456-3.556c1.841-1.805-.988-4.633-2.829-2.828a10,10,0,0,1-2.318,1.88c-.068.037-.561.275-.208.123a5.513,5.513,0,0,1-.63.218,8.712,8.712,0,0,1-1.31.275c-.186.025-1.06.089-1.489.115-.579.035-1.159.053-1.736.1a8.107,8.107,0,0,0-3.576.953A5.6,5.6,0,0,0,91.9,162.04a22.065,22.065,0,0,0-.4,3.6c-.011.069-.123.644-.048.284.04-.187-.1-.006.032-.034s-.394.19-.518.141c-.417-.165-.58-1.223-.657-1.552a15.5,15.5,0,0,1-.278-1.954,2.058,2.058,0,0,0-2-2,2.013,2.013,0,0,0-2,2Z"/><path class="b" d="M136.6,124.032c2.139-7.238,2.776-14.712,4.04-22.12.943-5.523,3.817-12.446,10.334-12.748a9.86,9.86,0,0,1,8.2,3.8c2.207,2.84,2.028,7.486,1.945,10.888a81.584,81.584,0,0,1-2.83,18.849c-1.663,6.219-3.439,12.638-7.7,17.639a23.258,23.258,0,0,1-7.424,5.322c-3.016,1.538-6.182,2.845-9.3,4.168a103.662,103.662,0,0,1-15.416,5.165c-1.565.391-3.137.757-4.712,1.109q-.735.163-1.472.325c-.3.066-1.1.088-1.322.286l-.226.048.742.558c.028-.04-.146-.412-.159-.467-.093-.384-.252-.763-.37-1.14-1-3.185-1.817-6.43-2.608-9.672-.377-1.546-.744-3.094-1.114-4.642q-.223-.931-.449-1.863c-.029-.119-.109-.788-.206-.838l-.145.42q-.4.6.084.35c.2.045.707-.215.908-.276,3.5-1.061,7-2.083,10.484-3.187,2.973-.943,5.923-1.959,8.8-3.164,2.542-1.065,5.661-2.095,7.505-4.243a12.826,12.826,0,0,0,2.416-4.564c.781-2.459-3.08-3.511-3.857-1.063a6.882,6.882,0,0,1-2.265,3.643,24.406,24.406,0,0,1-4.224,2.09,92.076,92.076,0,0,1-9.439,3.444c-3.784,1.2-7.6,2.3-11.392,3.463-2.147.655-3.209,2.009-2.7,4.287.333,1.487.717,2.966,1.072,4.449.855,3.579,1.717,7.16,2.747,10.693.423,1.452.757,3.653,1.811,4.785,1.514,1.626,3.76.728,5.61.32a117.861,117.861,0,0,0,17.977-5.238c3.184-1.255,6.316-2.64,9.438-4.04a42.925,42.925,0,0,0,9.817-5.547c5.7-4.64,8.114-11.91,10.132-18.683a101.793,101.793,0,0,0,3.658-20.01,33.074,33.074,0,0,0-.948-12.771,12.985,12.985,0,0,0-7.911-7.868c-6.855-2.639-13.845,1.152-16.95,7.42-1.861,3.757-2.442,7.737-3.039,11.839-.566,3.892-1.09,7.794-1.881,11.649-.421,2.046-.921,4.072-1.513,6.075C132.008,125.443,135.867,126.5,136.6,124.032Z"/><path class="a" d="M200.269,326.644a5.947,5.947,0,0,1-1.79-1.279c-1.768-1.866-2.078-4.712-1.675-7.25s1.409-4.945,1.928-7.462a39.585,39.585,0,0,0,.612-6.181l.421-9.056a1.523,1.523,0,0,1,2.124-1.313,5.041,5.041,0,0,0,6.125-1.241,36.746,36.746,0,0,0,4.627-7.144c.954-1.967,3.246-3.773,5.425-3.19,1.41.377,2.907.878,3.764,1.2,5.535,1.609,8.873,6.3,8.211,11.646a17.614,17.614,0,0,1-2.925,7.351c-4.427,6.769-9.278,14.718-15.479,21.06a12.479,12.479,0,0,1-6.4,3.379A8.066,8.066,0,0,1,200.269,326.644Z"/><path class="a" d="M80.5,326.751c-.18-.159-.353-.3-.489-.44-1.236-1.272-1.481-2.969-1.659-4.734a7.283,7.283,0,0,1,.9-3.963c1.5-3.037,5.194-4.065,8.414-5.123A55.4,55.4,0,0,0,98.905,307.6L106,302.572a1.46,1.46,0,0,1,2.246.83,4.831,4.831,0,0,0,4.553,3.9,35.194,35.194,0,0,0,8.128-.718,4.533,4.533,0,0,1,4.53,1.378c1.372,1.476,2.478,5.564,2.772,7.216a18.758,18.758,0,0,1-.208,7.753c-.937,2.931-3.861,5.169-5.909,5.3-3.091.2-6,.335-9.65.289-7.176-.091-18.558-.092-28.7-.22A4.952,4.952,0,0,1,80.5,326.751Z"/><path class="b" d="M201.279,324.917c-4.07-2.059-2.442-7.255-1.431-10.663a43.637,43.637,0,0,0,1.533-10.571l.324-6.988a5.854,5.854,0,0,0,.048-1.023c0-.017.029-.208.01-.221.158.1-.429.588-.438.557.1.372,2.007.537,2.336.571a6.566,6.566,0,0,0,2.919-.344c2.054-.756,3.32-2.444,4.559-4.159.69-.953,1.334-1.94,1.934-2.952.579-.977,1.013-2.066,1.639-3.01a3.1,3.1,0,0,1,4.51-1.165,20.162,20.162,0,0,1,4.959,2.018,8.488,8.488,0,0,1,3.9,8.066c-.457,4.3-3.53,7.991-5.814,11.5a124.247,124.247,0,0,1-8.812,12.271c-1.59,1.89-3.227,3.993-5.406,5.224-1.966,1.11-4.594,1.835-6.766.894a2.067,2.067,0,0,0-2.737.718,2.014,2.014,0,0,0,.718,2.736c5.022,2.174,10.6.17,14.246-3.643a95,95,0,0,0,9.858-12.627c4.8-7.105,12.775-16.809,6.336-25.348a13.238,13.238,0,0,0-5.011-4.064,26,26,0,0,0-6.7-2.2c-5.7-.832-7.688,5.953-10.3,9.567-1.143,1.581-2.3,2.984-4.407,2.408a5.2,5.2,0,0,0-2.943-.347,3.548,3.548,0,0,0-2.454,2.46,13.3,13.3,0,0,0-.2,2.69l-.2,4.25q-.067,1.475-.137,2.948a37.529,37.529,0,0,1-1.483,9.159,19.113,19.113,0,0,0-1.053,8.352,8.413,8.413,0,0,0,4.452,6.393C201.552,329.531,203.579,326.081,201.279,324.917Z"/><path class="b" d="M81.909,325.337a5.647,5.647,0,0,1-1.353-5.676,6.22,6.22,0,0,1,3.74-3.855c1.915-.879,4-1.394,5.986-2.1a60.555,60.555,0,0,0,6.6-2.754,47.61,47.61,0,0,0,6.475-4.071l2.984-2.115c.121-.085.6-.315.644-.456-.1.316-.567-.676-.634-.248-.055.348.407,1.1.543,1.387,2.074,4.352,6.91,4.1,11.017,3.618,1.212-.142,2.405-.427,3.611-.576a2.679,2.679,0,0,1,2.249.59c1.134,1.032,1.629,3.083,2.037,4.553.908,3.27,1.554,7.937-.858,10.707a5.559,5.559,0,0,1-4.517,1.989c-2.492.141-4.987.212-7.484.192q-7.522-.06-15.046-.108-4.272-.026-8.545-.059-2.136-.018-4.272-.042a4.084,4.084,0,0,1-3.179-.978c-1.941-1.671-4.783,1.146-2.828,2.829A8.344,8.344,0,0,0,82.31,330.1a18.948,18.948,0,0,0,4.568.236q4.291.043,8.582.067c5.236.032,10.473.047,15.708.1,2.675.028,5.344.022,8.016-.106,2.371-.113,4.6-.132,6.628-1.521,4.557-3.125,5.179-8.475,4.445-13.572-.561-3.9-2.085-9.483-6.413-10.624-2.476-.653-5.15.37-7.642.548-1.818.13-4.368.605-5.516-1.168-.549-.849-.625-1.872-1.33-2.642a3.494,3.494,0,0,0-3.6-.935,10.273,10.273,0,0,0-2.485,1.581,69.161,69.161,0,0,1-6.521,4.455,52.478,52.478,0,0,1-8.14,3.545c-2.537.877-5.251,1.537-7.566,2.939a9.634,9.634,0,0,0-4.6,6.792c-.45,2.905.383,6.4,2.645,8.37C81.013,329.851,83.854,327.033,81.909,325.337Z"/><path class="a" d="M110.871,22.467A25.916,25.916,0,0,1,127.935,4.051c8.254-2.883,18.077-2.614,26.351.042a25.655,25.655,0,0,1,13.8,9.826,31.037,31.037,0,0,1,5.065,14.836,35.112,35.112,0,0,1-2.327,16.534,5.9,5.9,0,0,1-5.336,3.327,49.2,49.2,0,0,0-18.411,4.85,2.838,2.838,0,0,1-1.749.342l-3.377-.516c-1.175-.215-2.179-1.85-2.55-2.647-2.759-5.66-5.729-12.51-6.922-14.128-1.586-2.331-3.975-2.53-6.818-3.187-2.185-.5-9.853-1.861-14.027-2.348-.905-.105-3.434-.037-3.421-.926.023-1.768,2.041-4.412,2.374-6.222Q110.712,23.15,110.871,22.467Z"/><path class="b" d="M112.8,23a23.425,23.425,0,0,1,8.891-13.434,31.239,31.239,0,0,1,17.226-5.533c6.518-.274,13.522.8,19.343,3.863A23.588,23.588,0,0,1,169.7,21.733a34.131,34.131,0,0,1,.217,20.206c-.364,1.192-.72,2.757-1.694,3.622-1.1.977-2.486,1.02-3.875,1.135a50.762,50.762,0,0,0-10.64,2.032,52.6,52.6,0,0,0-5.188,1.9c-.69.293-1.364.623-2.053.916.056-.024-1.152.379-.633.331a2.2,2.2,0,0,1-.461-.07c-.8-.12-1.606-.258-2.411-.369-.848-.117-1.2-.623-1.623-1.382-1.517-2.712-2.692-5.657-4.013-8.468a41.557,41.557,0,0,0-3.124-6.079c-1.971-2.846-4.985-3.438-8.16-4.14-2.43-.537-4.891-.947-7.345-1.353-2.811-.466-5.616-.849-8.449-1.129.255.025-.753-.059-.521-.068q-.383-.132-.15-.005.534,2.021.693.926c.3-.521.466-1.216.737-1.769A21.646,21.646,0,0,0,112.8,23c.565-2.507-3.29-3.577-3.857-1.063a19.2,19.2,0,0,1-1.55,4.349c-.614,1.273-1.51,2.987-1.087,4.451.741,2.562,4.486,2.121,6.546,2.4,2.995.407,5.979.916,8.951,1.463a37.643,37.643,0,0,1,7.205,1.627c2.083.843,2.919,3.307,3.825,5.185,1.549,3.212,3.012,6.464,4.564,9.674a8.743,8.743,0,0,0,2.561,3.43,5.5,5.5,0,0,0,2.674.891c.89.136,1.8.332,2.695.4,1.965.153,3.81-1.164,5.576-1.866a48.516,48.516,0,0,1,11.4-3.031c3.53-.473,7.158-.257,9.525-3.423a15.266,15.266,0,0,0,2.069-4.9,36.174,36.174,0,0,0,1.111-5.638,40.154,40.154,0,0,0-.248-11.281c-1.156-7.2-4.641-14.108-10.461-18.62C158.644,2.663,151.423.72,144.38.144c-13.462-1.1-28.21,4.062-33.892,17.217a28.163,28.163,0,0,0-1.545,4.574C108.338,24.436,112.194,25.5,112.8,23Z"/><path class="b" d="M134.607,64.8a35.6,35.6,0,0,0,5.969-5.919,45.82,45.82,0,0,0,4.977-7.03,2,2,0,0,0-3.454-2.019,32.892,32.892,0,0,1-1.957,3.09c-.937,1.333-1.39,1.917-2.395,3.13-.881,1.064-1.8,2.1-2.763,3.088-.454.465-.918.919-1.4,1.355q-.327.3-.665.581c-.089.075-.179.147-.268.221-.4.327.247-.183-.063.049a2.051,2.051,0,0,0-.718,2.736,2.02,2.02,0,0,0,2.736.718Z"/></svg>